<?xml version="1.0" encoding="utf-8"?>
<!-- Generator: Adobe Illustrator 17.0.0, SVG Export Plug-In . SVG Version: 6.00 Build 0)  -->
<!DOCTYPE svg PUBLIC "-//W3C//DTD SVG 1.1//EN" "http://www.w3.org/Graphics/SVG/1.1/DTD/svg11.dtd">
<svg version="1.1" id="Слой_1" xmlns="http://www.w3.org/2000/svg" xmlns:xlink="http://www.w3.org/1999/xlink" x="0px" y="0px"
	 width="11.417px" height="11.417px" viewBox="0 0 11.417 11.417" enable-background="new 0 0 11.417 11.417" xml:space="preserve">
<path opacity="0.2" d="M7.123,5.708l3.005-3.005c0.391-0.391,0.391-1.024,0-1.414c-0.39-0.391-1.023-0.391-1.414,0L5.708,4.294
	L2.703,1.289c-0.391-0.391-1.023-0.391-1.414,0c-0.391,0.391-0.391,1.024,0,1.414l3.005,3.005L1.289,8.714
	c-0.391,0.391-0.391,1.024,0,1.414c0.391,0.39,1.023,0.391,1.414,0l3.005-3.005l3.005,3.005c0.391,0.39,1.023,0.391,1.414,0
	c0.391-0.391,0.391-1.024,0-1.414L7.123,5.708z"/>
</svg>
