<?xml version="1.0" encoding="utf-8"?>
<!-- Generator: Adobe Illustrator 17.0.0, SVG Export Plug-In . SVG Version: 6.00 Build 0)  -->
<!DOCTYPE svg PUBLIC "-//W3C//DTD SVG 1.1//EN" "http://www.w3.org/Graphics/SVG/1.1/DTD/svg11.dtd">
<svg version="1.1" id="Слой_1" xmlns="http://www.w3.org/2000/svg" xmlns:xlink="http://www.w3.org/1999/xlink" x="0px" y="0px"
	 width="142px" height="142px" viewBox="0 0 142 142" enable-background="new 0 0 142 142" xml:space="preserve">
<g opacity="0.1">
	<path d="M135.633,54.139c-3.978-3.685-9.247-3.399-9.53-3.368h-23.941h-0.651h-2.439c1.923-6.534,3.493-8.961,5.021-11.321
		c1.908-2.947,3.884-5.996,6.067-14.528c1.283-5.013,0.576-9.601-1.999-12.917c-2.507-3.229-6.617-5.009-11.57-5.009
		c-10.621,0-15.047,14.889-15.45,16.364c-1.716,5.021-3.892,7.354-6.41,10.057c-2.702,2.902-5.766,6.187-8.186,12.665
		c-2.174,5.818-11.156,13.801-17.468,18.776c-1.371-2.993-3.677-5.295-7.203-5.295l-31.698-0.034c-4.674,0-7.817,2.921-7.817,7.268
		v55.699c0,6.225,2.586,12.507,8.363,12.507h26.097l0.271-0.038c1.875-0.27,3.999-1.725,5.932-5.476
		c3.407,2.61,8.441,5.514,14.219,5.514l58.228-0.004c0.075,0.004,0.226,0.008,0.437,0.008c1.498,0,6.082-0.267,9.304-3.342
		c2.032-1.938,3.105-4.595,3.105-7.689c0-2.94-0.772-5.375-1.903-7.362c3.947-1.64,8.46-5.153,8.46-11.388
		c0-3.46-0.884-6.269-1.964-8.446c0.95-0.491,1.903-1.122,2.796-1.976c2.608-2.499,3.933-5.988,3.933-10.38
		c0-4.454-1.162-7.939-3.355-10.465c1.654-1.794,3.355-4.722,3.355-9.464C139.638,59.005,137.459,55.832,135.633,54.139z
		 M35.347,127.301l-24.155,0.166c-0.553-0.534-1.11-3.003-1.122-4.972l0.004-55.202l31.438-0.135
		c0.572,0.455,1.287,2.714,1.43,4.072c-0.004,0.087-0.433,9.176-2.45,33.779C39.167,121.177,36.31,126.077,35.347,127.301z
		 M122.393,109.977h-9.194l-0.007-0.001c-2.128,0-3.854,1.725-3.854,3.854c0,2.128,1.725,3.853,3.853,3.854v0.001l3.687-0.023
		c0.996,0.513,3.732,2.264,3.732,6.312c0,1.272-0.403,1.807-0.704,2.1c-1.103,1.073-3.421,1.265-4.253,1.219H57.244
		c-4.848,0-9.346-3.549-11.512-5.557c1.017-4.096,1.883-9.254,2.445-16.095c1.513-18.484,2.128-28.118,2.349-32.179
		c5.028-3.695,19.641-15.052,23.24-24.679c1.886-5.047,4.072-7.396,6.605-10.113c2.725-2.924,5.815-6.24,8.133-13.034
		c0.948-3.425,4.302-10.933,8.088-10.933c1.784,0,4.181,0.35,5.48,2.029c1.08,1.393,1.302,3.621,0.621,6.278
		c-1.871,7.313-3.353,9.601-5.07,12.251c-2.096,3.241-4.475,6.91-7.317,18.442l-1.178,4.776h13.034l0,0l24.193-0.008
		c0.019-0.011,2.518-0.12,4.069,1.355c1.001,0.945,1.505,2.514,1.505,4.667c0,2.07-0.489,3.538-1.49,4.486
		c-1.441,1.362-3.839,1.524-4.961,1.494l-9.82,0.015l-0.008-0.001l-0.008,0.002h-0.152v0.031c-2.049,0.089-3.694,1.75-3.694,3.822
		c0,2.077,1.652,3.744,3.709,3.825v0.031l9.695-0.026c0.289,0.016,1.719,0.08,3.568-0.247c0.166,0.026,0.874,0.161,1.554,0.834
		c1.05,1.039,1.607,3,1.607,5.664c0,2.179-0.508,3.786-1.517,4.772c-1.468,1.441-3.782,1.438-3.899,1.415h-10.862v0l-0.001,0
		c-2.129,0-3.854,1.726-3.854,3.854c0,2.128,1.726,3.854,3.854,3.854l0.001,0v0l9.17-0.003c0.928,1.15,2.343,3.418,2.343,6.91
		C127.165,108.874,122.144,109.954,122.393,109.977z"/>
</g>
</svg>
