<?xml version="1.0" encoding="utf-8"?>
<!-- Generator: Adobe Illustrator 17.0.0, SVG Export Plug-In . SVG Version: 6.00 Build 0)  -->
<!DOCTYPE svg PUBLIC "-//W3C//DTD SVG 1.1//EN" "http://www.w3.org/Graphics/SVG/1.1/DTD/svg11.dtd">
<svg version="1.1" id="Слой_1" xmlns="http://www.w3.org/2000/svg" xmlns:xlink="http://www.w3.org/1999/xlink" x="0px" y="0px"
	 width="109.667px" height="38px" viewBox="0 0 109.667 38" enable-background="new 0 0 109.667 38" xml:space="preserve">
<g>
	<g>
		<path fill="#3768DB" d="M31.742,25.421h-4.021l2.272,2.272l-2.13,2.13l-2.165-2.165l-0.952,0.577
			c-0.93,0.562-1.936,0.979-2.989,1.239l-1.081,0.267V32.8h-3.013v-3.059l-1.081-0.267c-1.053-0.26-2.059-0.676-2.988-1.238
			l-0.953-0.578l-2.165,2.165l-2.13-2.13l2.165-2.164l-0.577-0.953c-0.563-0.931-0.979-1.936-1.239-2.989l-0.267-1.081H5.37v-3.013
			h3.059l0.267-1.081c0.26-1.053,0.676-2.058,1.238-2.987l0.578-0.953l-2.165-2.165l2.13-2.131l2.163,2.165l0.953-0.577
			c0.93-0.562,1.936-0.979,2.988-1.239l1.081-0.266V5.2h3.013v3.059l1.081,0.266c1.053,0.26,2.058,0.676,2.988,1.239l0.954,0.577
			l2.163-2.165l2.13,2.131l-2.272,2.272h4.021l1.004-1.005c0.343-0.343,0.54-0.813,0.541-1.289c0-0.455-0.173-0.878-0.487-1.193
			l-3.727-3.728c-0.306-0.304-0.727-0.471-1.185-0.471c-0.483,0-0.954,0.192-1.292,0.528L25.23,6.789
			c-0.551-0.274-1.124-0.511-1.711-0.709V4.148c0-0.988-0.77-1.791-1.717-1.791h-5.265c-0.946,0-1.716,0.804-1.716,1.791V6.08
			c-0.587,0.197-1.16,0.435-1.711,0.709L11.741,5.42c-0.335-0.334-0.805-0.525-1.288-0.525c-0.459,0-0.881,0.168-1.19,0.475
			L5.541,9.093c-0.328,0.328-0.501,0.77-0.487,1.245c0.014,0.464,0.206,0.903,0.539,1.236l1.365,1.366
			c-0.275,0.554-0.513,1.127-0.709,1.71H4.319c-0.988,0-1.792,0.77-1.792,1.717v5.265c0,0.947,0.804,1.717,1.792,1.717h1.93
			c0.198,0.587,0.435,1.16,0.709,1.711L5.59,26.429c-0.695,0.699-0.717,1.81-0.049,2.478l3.722,3.722
			c0.306,0.307,0.728,0.476,1.189,0.476c0.486,0,0.957-0.192,1.292-0.528l1.366-1.365c0.552,0.274,1.125,0.512,1.711,0.709v1.93
			c0,0.988,0.77,1.792,1.716,1.792h5.265c0.947,0,1.717-0.804,1.717-1.792v-1.93c0.586-0.197,1.159-0.435,1.711-0.709l1.367,1.366
			c0.337,0.335,0.808,0.527,1.293,0.527c0,0,0,0,0,0c0.461,0,0.883-0.169,1.187-0.475l3.723-3.723
			c0.314-0.314,0.488-0.738,0.487-1.193c0-0.476-0.197-0.946-0.54-1.288L31.742,25.421z"/>
		<path fill="#3768DB" d="M19.17,14.391h0.515v-2.843H19.17c-4.109,0-7.451,3.343-7.451,7.451c0,4.109,3.343,7.452,7.451,7.452
			h0.515v-2.843H19.17c-2.541,0-4.608-2.068-4.608-4.609C14.562,16.459,16.629,14.391,19.17,14.391z"/>
	</g>
	<g>
		<path fill="#3768DB" d="M22.524,14.187h2.447l2.037,4.731l2.051-4.731h2.447v9.68h-2.461l0.014-2.789l0.15-1.955l-0.082-0.014
			l-1.272,3.322h-1.682l-1.299-3.322l-0.068,0.014l0.164,1.955v2.789h-2.447V14.187z"/>
		<path fill="#3768DB" d="M41.255,23.868H38.63L38,21.926h-2.584l-0.602,1.942H32.19l3.377-9.68h2.229L41.255,23.868z
			 M37.412,19.752l-0.67-2.83h-0.068l-0.711,2.83H37.412z"/>
		<path fill="#3768DB" d="M48.706,21.831c-0.807,1.572-2.27,2.174-3.487,2.174c-1.9,0-3.815-1.108-3.815-3.309V17.36
			c0-2.188,1.914-3.309,3.856-3.309c1.19,0,2.625,0.506,3.405,2.229l-1.996,0.807c-0.656-1.203-2.817-0.93-2.817,0.273v3.336
			c0,1.162,2.188,1.49,2.721,0.15L48.706,21.831z"/>
		<path fill="#3768DB" d="M54.065,16.498v7.37H51.59v-7.37h-2.57v-2.324h7.616v2.324H54.065z"/>
		<path fill="#3768DB" d="M60.067,17.989h3.924v2.119h-3.924v1.449h4.266v2.311h-6.741v-9.68h6.741v2.297h-4.266V17.989z"/>
		<path fill="#3768DB" d="M65.631,14.187H69.5c2.365,0,3.541,1.709,3.541,3.418c0,1.723-1.189,3.432-3.527,3.432h-1.436v2.83h-2.447
			V14.187z M69.5,18.864c1.477,0.014,1.477-2.406,0-2.393h-1.422v2.393H69.5z"/>
		<path fill="#3768DB" d="M81.149,21.831c-0.807,1.572-2.27,2.174-3.487,2.174c-1.9,0-3.815-1.108-3.815-3.309V17.36
			c0-2.188,1.914-3.309,3.856-3.309c1.19,0,2.625,0.506,3.405,2.229l-1.996,0.807c-0.656-1.203-2.817-0.93-2.817,0.273v3.336
			c0,1.162,2.188,1.49,2.721,0.15L81.149,21.831z"/>
		<path fill="#3768DB" d="M87.123,14.187h3.049l-3.828,4.758l3.815,4.922h-3.076l-2.502-3.459l-0.082,0.109v3.35h-2.461v-9.68h2.461
			v3.582L87.123,14.187z"/>
		<path fill="#3768DB" d="M89.981,17.373c0-2.229,1.996-3.322,4.006-3.322c2.01,0,4.02,1.107,4.02,3.322v3.309
			c0,2.215-1.996,3.323-4.006,3.323c-2.01,0-4.02-1.108-4.02-3.323V17.373z M92.428,20.682c0,0.711,0.793,1.053,1.572,1.053
			c0.779,0,1.559-0.355,1.559-1.053v-3.309c0-0.752-0.807-1.094-1.6-1.094c-0.766,0-1.531,0.383-1.531,1.094V20.682z"/>
		<path fill="#3768DB" d="M104.678,19.998c0.014,0,0.246-1.818,0.246-1.818l-0.068-0.014l-0.916,1.887l-2.324,3.815h-2.311v-9.68
			h2.461v4.389c-0.014,0-0.205,1.449-0.205,1.449l0.055,0.014l0.807-1.736l2.475-4.116h2.242v9.68h-2.461V19.998z M100.686,11.015
			h1.9c0,0.342,0.246,0.561,0.574,0.561s0.574-0.219,0.574-0.561h1.9c0,1.572-1.203,2.379-2.475,2.379
			C101.889,13.394,100.686,12.588,100.686,11.015z"/>
	</g>
</g>
</svg>
