<?xml version="1.0" encoding="utf-8"?>
<!-- Generator: Adobe Illustrator 17.0.0, SVG Export Plug-In . SVG Version: 6.00 Build 0)  -->
<!DOCTYPE svg PUBLIC "-//W3C//DTD SVG 1.1//EN" "http://www.w3.org/Graphics/SVG/1.1/DTD/svg11.dtd">
<svg version="1.1" id="Слой_1" xmlns="http://www.w3.org/2000/svg" xmlns:xlink="http://www.w3.org/1999/xlink" x="0px" y="0px"
	 width="68px" height="27.5px" viewBox="0 0 68 27.5" enable-background="new 0 0 68 27.5" xml:space="preserve">
<g>
	<g>
		<path fill="#B50909" d="M54.232,1.432L54.232,1.432L54.232,1.432H13.768c-6.803,0-12.318,5.515-12.318,12.318
			s5.515,12.318,12.318,12.318h40.464l0,0h0c6.803,0,12.318-5.515,12.318-12.318S61.035,1.432,54.232,1.432z"/>
		<g opacity="0.5">
			<path fill="#FFFFFF" d="M21.98,5.016h-8.212c-4.816,0-8.734,3.918-8.734,8.734c0,1.105,0.204,2.182,0.606,3.202
				c0.139,0.353,0.476,0.568,0.834,0.568c0.109,0,0.22-0.02,0.328-0.063c0.46-0.182,0.686-0.702,0.505-1.162
				c-0.319-0.81-0.481-1.666-0.481-2.545c0-3.828,3.114-6.943,6.943-6.943h8.212c0.495,0,0.896-0.401,0.896-0.896
				S22.474,5.016,21.98,5.016z"/>
			<path fill="#FFFFFF" d="M32.121,5.016h-3.702c-0.495,0-0.896,0.401-0.896,0.896s0.401,0.896,0.896,0.896h3.702
				c0.495,0,0.896-0.401,0.896-0.896S32.616,5.016,32.121,5.016z"/>
			<path fill="#FFFFFF" d="M39.966,5.016h-1.851c-0.495,0-0.896,0.401-0.896,0.896s0.401,0.896,0.896,0.896h1.851
				c0.495,0,0.896-0.401,0.896-0.896S40.461,5.016,39.966,5.016z"/>
			<path fill="#FFFFFF" d="M11.189,20.198c-0.696-0.279-1.34-0.667-1.915-1.155c-0.377-0.32-0.942-0.274-1.263,0.102
				c-0.32,0.377-0.275,0.942,0.102,1.263c0.722,0.614,1.533,1.103,2.409,1.454c0.109,0.044,0.222,0.064,0.333,0.064
				c0.356,0,0.692-0.213,0.832-0.563C11.872,20.903,11.648,20.382,11.189,20.198z"/>
		</g>
		<g>
			<path fill="#FFFFFF" d="M17.557,10.616c0.068-0.129,0.14-0.22,0.217-0.274c0.077-0.054,0.173-0.08,0.287-0.08
				c0.175,0,0.299,0.047,0.373,0.139c0.073,0.093,0.11,0.252,0.11,0.477l0.011,1.395c0,0.247-0.04,0.413-0.121,0.499
				c-0.08,0.086-0.228,0.129-0.443,0.129c-0.15,0-0.267-0.037-0.351-0.111c-0.084-0.073-0.153-0.205-0.207-0.396
				c-0.097-0.345-0.245-0.59-0.445-0.738c-0.2-0.147-0.481-0.221-0.842-0.221c-0.551,0-0.972,0.186-1.263,0.559
				c-0.291,0.372-0.437,0.911-0.437,1.617c0,0.705,0.153,1.251,0.459,1.636c0.306,0.385,0.739,0.577,1.301,0.577
				c0.129,0,0.275-0.015,0.44-0.045c0.164-0.03,0.358-0.078,0.579-0.142V14.79h-0.606c-0.243,0-0.416-0.045-0.518-0.134
				c-0.102-0.089-0.153-0.238-0.153-0.445c0-0.215,0.051-0.368,0.153-0.459c0.102-0.091,0.274-0.137,0.518-0.137h1.937
				c0.25,0,0.426,0.045,0.528,0.134c0.102,0.089,0.153,0.24,0.153,0.451c0,0.19-0.051,0.335-0.153,0.437
				c-0.102,0.102-0.249,0.153-0.443,0.153h-0.086v1.277v0.064c0,0.115-0.013,0.194-0.038,0.239c-0.025,0.045-0.075,0.09-0.15,0.137
				c-0.204,0.121-0.528,0.229-0.971,0.322c-0.444,0.093-0.892,0.139-1.347,0.139c-0.937,0-1.695-0.309-2.275-0.928
				c-0.579-0.619-0.869-1.427-0.869-2.425c0-0.962,0.293-1.762,0.88-2.398c0.587-0.637,1.33-0.955,2.232-0.955
				c0.25,0,0.5,0.029,0.748,0.086C17.015,10.405,17.278,10.494,17.557,10.616z"/>
			<path fill="#FFFFFF" d="M23.861,13.878c0.093,0.057,0.184,0.161,0.274,0.311c0.014,0.022,0.027,0.039,0.037,0.054l0.875,1.384
				h0.059h0.107c0.207,0,0.364,0.048,0.469,0.145c0.105,0.096,0.158,0.241,0.158,0.435c0,0.211-0.053,0.363-0.158,0.456
				c-0.106,0.093-0.28,0.14-0.523,0.14H24.5c-0.243,0-0.433-0.105-0.569-0.317l-0.016-0.011L22.6,14.452
				c-0.05-0.079-0.107-0.139-0.172-0.18c-0.064-0.041-0.132-0.062-0.204-0.062h-0.504v1.416h0.086c0.193,0,0.339,0.049,0.437,0.148
				c0.098,0.098,0.148,0.242,0.148,0.432c0,0.211-0.051,0.363-0.153,0.456c-0.102,0.093-0.275,0.14-0.518,0.14h-1.384
				c-0.24,0-0.411-0.047-0.515-0.14c-0.104-0.093-0.156-0.245-0.156-0.456c0-0.19,0.049-0.333,0.148-0.432
				c0.098-0.098,0.242-0.148,0.432-0.148h0.091v-4.002h-0.091c-0.186,0-0.329-0.051-0.429-0.153c-0.1-0.102-0.15-0.248-0.15-0.437
				c0-0.207,0.053-0.358,0.158-0.453c0.105-0.095,0.276-0.142,0.512-0.142h2.473c0.758,0,1.332,0.148,1.722,0.443
				c0.39,0.295,0.585,0.731,0.585,1.306c0,0.401-0.108,0.747-0.325,1.041C24.576,13.522,24.265,13.738,23.861,13.878z
				 M21.656,11.592v1.518h0.724c0.447,0,0.76-0.058,0.939-0.174c0.179-0.116,0.268-0.31,0.268-0.582
				c0-0.268-0.081-0.462-0.244-0.582c-0.163-0.12-0.425-0.18-0.786-0.18H21.656z"/>
			<path fill="#FFFFFF" d="M28.325,11.624l0.837,1.749l0.799-1.749H29.94c-0.161,0-0.284-0.05-0.368-0.15
				c-0.084-0.1-0.126-0.247-0.126-0.44c0-0.215,0.044-0.367,0.131-0.459c0.088-0.091,0.237-0.137,0.448-0.137h1.223
				c0.24,0,0.409,0.046,0.51,0.137c0.1,0.091,0.15,0.244,0.15,0.459c0,0.193-0.049,0.34-0.147,0.44
				c-0.099,0.1-0.241,0.15-0.427,0.15h-0.086l-1.443,2.682v1.32h0.703c0.243,0,0.416,0.046,0.518,0.137
				c0.102,0.091,0.153,0.239,0.153,0.443c0,0.207-0.054,0.359-0.161,0.453c-0.107,0.095-0.281,0.142-0.52,0.142h-2.779
				c-0.24,0-0.411-0.047-0.515-0.14c-0.104-0.093-0.156-0.245-0.156-0.456c0-0.211,0.05-0.36,0.15-0.448
				c0.1-0.088,0.274-0.131,0.52-0.131h0.703v-1.164l-1.524-2.838h-0.091c-0.186,0-0.327-0.05-0.424-0.15
				c-0.096-0.1-0.145-0.247-0.145-0.44c0-0.215,0.05-0.367,0.15-0.459c0.1-0.091,0.27-0.137,0.51-0.137h1.406
				c0.211,0,0.362,0.047,0.453,0.139c0.091,0.093,0.137,0.245,0.137,0.456c0,0.19-0.042,0.335-0.126,0.437
				c-0.084,0.102-0.207,0.153-0.368,0.153H28.325z"/>
			<path fill="#FFFFFF" d="M37.52,11.614h-1.121v4.002H37.3c0.24,0,0.411,0.047,0.515,0.14c0.104,0.093,0.156,0.243,0.156,0.451
				c0,0.211-0.052,0.363-0.156,0.456c-0.104,0.093-0.275,0.14-0.515,0.14h-3.187c-0.236,0-0.406-0.047-0.51-0.14
				c-0.104-0.093-0.156-0.245-0.156-0.456c0-0.211,0.051-0.362,0.153-0.453c0.102-0.091,0.273-0.137,0.512-0.137h0.901v-4.002
				h-1.121l-0.032,1.089v0.134c0,0.172-0.047,0.306-0.142,0.402c-0.095,0.097-0.226,0.145-0.394,0.145
				c-0.2,0-0.348-0.051-0.443-0.153c-0.095-0.102-0.142-0.264-0.142-0.485v-0.043l0.059-1.604c0.011-0.318,0.055-0.51,0.131-0.574
				c0.077-0.064,0.233-0.096,0.469-0.096h4.614c0.236,0,0.393,0.032,0.47,0.096c0.077,0.064,0.122,0.256,0.137,0.574l0.054,1.604
				v0.043c0,0.225-0.045,0.388-0.134,0.488c-0.089,0.1-0.234,0.15-0.434,0.15c-0.193,0-0.332-0.049-0.416-0.147
				c-0.084-0.098-0.13-0.276-0.137-0.534L37.52,11.614z"/>
			<path fill="#FFFFFF" d="M43.641,10.562c0.054-0.114,0.114-0.193,0.182-0.236c0.068-0.043,0.172-0.064,0.311-0.064
				c0.207,0,0.341,0.039,0.4,0.115c0.059,0.077,0.092,0.23,0.099,0.459l0.021,1.03v0.059c0,0.211-0.042,0.359-0.126,0.443
				c-0.084,0.084-0.226,0.126-0.426,0.126c-0.254,0-0.444-0.136-0.569-0.408c-0.018-0.039-0.032-0.072-0.043-0.097
				c-0.111-0.222-0.261-0.389-0.451-0.502c-0.19-0.113-0.413-0.169-0.671-0.169c-0.322,0-0.582,0.074-0.781,0.223
				s-0.298,0.339-0.298,0.571c0,0.329,0.454,0.588,1.363,0.778c0.154,0.032,0.275,0.057,0.365,0.075
				c0.687,0.15,1.184,0.379,1.492,0.687c0.308,0.308,0.461,0.728,0.461,1.261c0,0.658-0.223,1.165-0.67,1.521
				c-0.447,0.356-1.087,0.534-1.921,0.534c-0.325,0-0.616-0.021-0.872-0.064c-0.256-0.043-0.504-0.109-0.743-0.198
				c-0.057,0.093-0.123,0.16-0.198,0.201s-0.179,0.062-0.311,0.062c-0.225,0-0.383-0.043-0.472-0.129
				c-0.089-0.086-0.136-0.238-0.14-0.456l-0.021-1.261v-0.059c0-0.236,0.044-0.4,0.131-0.493c0.088-0.093,0.241-0.14,0.459-0.14
				c0.233,0,0.428,0.168,0.585,0.504c0.036,0.082,0.064,0.145,0.086,0.188c0.14,0.275,0.334,0.481,0.582,0.617
				c0.248,0.136,0.553,0.204,0.915,0.204c0.329,0,0.585-0.068,0.767-0.204c0.182-0.136,0.274-0.327,0.274-0.574
				c0-0.383-0.413-0.672-1.239-0.869c-0.247-0.057-0.442-0.105-0.585-0.145c-0.694-0.182-1.175-0.41-1.443-0.684
				c-0.268-0.273-0.402-0.648-0.402-1.124c0-0.612,0.23-1.111,0.689-1.5c0.46-0.388,1.054-0.582,1.784-0.582
				c0.243,0,0.482,0.025,0.716,0.075C43.175,10.387,43.409,10.462,43.641,10.562z"/>
			<path fill="#FFFFFF" d="M51.597,15.627h0.091c0.193,0,0.34,0.049,0.44,0.148c0.1,0.098,0.15,0.242,0.15,0.432
				c0,0.211-0.053,0.363-0.158,0.456c-0.106,0.093-0.28,0.14-0.523,0.14h-1.615c-0.247,0-0.422-0.046-0.526-0.137
				c-0.104-0.091-0.156-0.244-0.156-0.459c0-0.207,0.052-0.356,0.156-0.445c0.104-0.089,0.279-0.134,0.526-0.134h0.188l-0.22-0.628
				h-2.318l-0.231,0.628h0.188c0.243,0,0.417,0.046,0.523,0.137c0.105,0.091,0.158,0.239,0.158,0.443
				c0,0.211-0.053,0.363-0.158,0.456c-0.106,0.093-0.28,0.14-0.523,0.14h-1.384c-0.247,0-0.422-0.047-0.526-0.14
				c-0.104-0.093-0.156-0.245-0.156-0.456c0-0.19,0.05-0.333,0.15-0.432c0.1-0.098,0.247-0.148,0.44-0.148h0.091l1.438-4.002h-0.429
				c-0.243,0-0.418-0.046-0.523-0.139c-0.105-0.093-0.158-0.243-0.158-0.451c0-0.211,0.053-0.363,0.158-0.456
				c0.105-0.093,0.28-0.139,0.523-0.139h2.012c0.318,0,0.542,0.172,0.671,0.515v0.016L51.597,15.627z M48.786,11.624l-0.778,2.264
				h1.556L48.786,11.624z"/>
			<path fill="#FFFFFF" d="M54.698,11.624l0.837,1.749l0.799-1.749h-0.021c-0.161,0-0.283-0.05-0.368-0.15
				c-0.084-0.1-0.126-0.247-0.126-0.44c0-0.215,0.044-0.367,0.131-0.459c0.088-0.091,0.237-0.137,0.448-0.137h1.223
				c0.239,0,0.409,0.046,0.51,0.137c0.1,0.091,0.15,0.244,0.15,0.459c0,0.193-0.049,0.34-0.148,0.44
				c-0.098,0.1-0.241,0.15-0.426,0.15h-0.086l-1.443,2.682v1.32h0.703c0.243,0,0.416,0.046,0.518,0.137
				c0.102,0.091,0.153,0.239,0.153,0.443c0,0.207-0.054,0.359-0.161,0.453c-0.107,0.095-0.281,0.142-0.52,0.142h-2.779
				c-0.24,0-0.411-0.047-0.515-0.14c-0.104-0.093-0.156-0.245-0.156-0.456c0-0.211,0.05-0.36,0.15-0.448
				c0.1-0.088,0.274-0.131,0.52-0.131h0.703v-1.164l-1.524-2.838H53.18c-0.186,0-0.327-0.05-0.424-0.15
				c-0.096-0.1-0.145-0.247-0.145-0.44c0-0.215,0.05-0.367,0.15-0.459c0.1-0.091,0.27-0.137,0.51-0.137h1.406
				c0.211,0,0.362,0.047,0.453,0.139c0.091,0.093,0.137,0.245,0.137,0.456c0,0.19-0.042,0.335-0.126,0.437
				c-0.084,0.102-0.207,0.153-0.368,0.153H54.698z"/>
		</g>
		<g>
			<path fill="#FFFFFF" d="M23.89,20.218c0.218,0,0.412,0.045,0.582,0.133c0.17,0.089,0.302,0.214,0.396,0.375
				c0.094,0.161,0.141,0.342,0.141,0.543c0,0.205-0.047,0.387-0.142,0.545c-0.094,0.159-0.228,0.281-0.403,0.368
				c-0.174,0.087-0.373,0.131-0.599,0.131h-0.854v-2.096H23.89z M23.848,21.997c0.224,0,0.404-0.067,0.539-0.202
				c0.135-0.134,0.203-0.311,0.203-0.529c0-0.226-0.068-0.405-0.205-0.536c-0.136-0.131-0.32-0.196-0.551-0.196h-0.417v1.463H23.848
				z"/>
			<path fill="#FFFFFF" d="M25.801,20.218v2.096h-0.405v-2.096H25.801z"/>
			<path fill="#FFFFFF" d="M27.372,20.191c0.258,0,0.514,0.058,0.768,0.173v0.371c-0.254-0.129-0.504-0.194-0.75-0.194
				c-0.153,0-0.289,0.031-0.408,0.092c-0.119,0.061-0.211,0.149-0.277,0.263s-0.098,0.242-0.098,0.383
				c0,0.214,0.071,0.386,0.214,0.517c0.143,0.131,0.33,0.196,0.563,0.196c0.064,0,0.125-0.005,0.184-0.016
				c0.058-0.011,0.128-0.032,0.209-0.063v-0.348H27.43v-0.316h0.752v0.864c-0.103,0.072-0.227,0.128-0.371,0.169
				s-0.295,0.061-0.451,0.061c-0.221,0-0.421-0.045-0.601-0.136c-0.179-0.091-0.32-0.218-0.42-0.383
				c-0.101-0.164-0.151-0.347-0.151-0.549c0-0.205,0.051-0.39,0.152-0.556c0.101-0.166,0.243-0.295,0.425-0.387
				C26.947,20.237,27.149,20.191,27.372,20.191z"/>
			<path fill="#FFFFFF" d="M29.028,20.218v2.096h-0.405v-2.096H29.028z"/>
			<path fill="#FFFFFF" d="M31.237,20.218v0.316h-0.744v1.779h-0.405v-1.779h-0.744v-0.316H31.237z"/>
			<path fill="#FFFFFF" d="M32.361,20.218l0.926,2.096h-0.428l-0.218-0.51H31.71l-0.202,0.51h-0.425l0.864-2.096H32.361z
				 M31.833,21.496h0.677l-0.354-0.829L31.833,21.496z"/>
			<path fill="#FFFFFF" d="M33.938,20.218v1.779h1.017v0.316h-1.422v-2.096H33.938z"/>
			<path fill="#FFFFFF" d="M36.963,20.218l0.926,2.096h-0.428l-0.218-0.51h-0.931l-0.202,0.51h-0.425l0.864-2.096H36.963z
				 M36.435,21.496h0.676l-0.354-0.829L36.435,21.496z"/>
			<path fill="#FFFFFF" d="M39.143,20.191c0.258,0,0.514,0.058,0.768,0.173v0.371c-0.254-0.129-0.504-0.194-0.75-0.194
				c-0.153,0-0.289,0.031-0.408,0.092c-0.119,0.061-0.211,0.149-0.277,0.263s-0.098,0.242-0.098,0.383
				c0,0.214,0.071,0.386,0.214,0.517c0.143,0.131,0.33,0.196,0.563,0.196c0.064,0,0.125-0.005,0.184-0.016
				c0.058-0.011,0.128-0.032,0.209-0.063v-0.348h-0.346v-0.316h0.752v0.864c-0.103,0.072-0.227,0.128-0.371,0.169
				c-0.144,0.04-0.295,0.061-0.451,0.061c-0.221,0-0.421-0.045-0.601-0.136c-0.18-0.091-0.32-0.218-0.42-0.383
				c-0.101-0.164-0.151-0.347-0.151-0.549c0-0.205,0.051-0.39,0.152-0.556c0.101-0.166,0.243-0.295,0.425-0.387
				C38.718,20.237,38.92,20.191,39.143,20.191z"/>
			<path fill="#FFFFFF" d="M41.739,20.218v0.316H40.79v0.551h0.909v0.316H40.79v0.596h0.97v0.316h-1.376v-2.096H41.739z"/>
			<path fill="#FFFFFF" d="M42.494,20.218l1.245,1.463v-1.463h0.396v2.096h-0.348l-1.253-1.487v1.487h-0.396v-2.096H42.494z"/>
			<path fill="#FFFFFF" d="M45.695,20.191c0.119,0,0.236,0.014,0.35,0.041c0.114,0.027,0.237,0.073,0.369,0.138v0.381
				c-0.129-0.074-0.248-0.128-0.358-0.161c-0.109-0.033-0.224-0.05-0.343-0.05c-0.149,0-0.284,0.031-0.404,0.092
				c-0.12,0.061-0.213,0.148-0.28,0.26c-0.067,0.112-0.1,0.237-0.1,0.374c0,0.14,0.033,0.266,0.099,0.376
				c0.066,0.111,0.159,0.197,0.279,0.257s0.255,0.091,0.405,0.091c0.115,0,0.225-0.016,0.329-0.049
				c0.104-0.033,0.236-0.092,0.395-0.178v0.381c-0.136,0.071-0.261,0.122-0.375,0.152c-0.114,0.03-0.247,0.045-0.399,0.045
				c-0.221,0-0.418-0.044-0.593-0.132c-0.174-0.088-0.311-0.215-0.41-0.38c-0.1-0.166-0.149-0.347-0.149-0.544
				c0-0.211,0.051-0.4,0.154-0.568c0.102-0.168,0.244-0.298,0.423-0.388C45.268,20.236,45.47,20.191,45.695,20.191z"/>
			<path fill="#FFFFFF" d="M47.096,20.218l0.507,0.701l0.513-0.701h0.482l-0.792,1.058v1.038h-0.405v-1.041l-0.797-1.054H47.096z"/>
		</g>
	</g>
</g>
</svg>
